<svg xmlns="http://www.w3.org/2000/svg" viewBox="0 0 360 400"><circle cx="180" cy="192" r="120" fill="#243553" stroke="#68dfdc" stroke-width="5"/><ellipse cx="180" cy="192" rx="55" ry="120" fill="none" stroke="#58939f" stroke-width="4"/><path d="M60 192h240M82 125h195M82 256h195M180 72v240" stroke="#58939f" stroke-width="4"/><path d="M94 138l53-28 30 40-13 46-42 5-21-36M208 192l62 10-12 58-30 22-30-49z" fill="#6bb09a"/><path d="M113 75L99 28l48 18 33-30 32 30 48-18-15 47" fill="#ffd36b"/><path d="M34 327l75-34h143l73 34-74 38H109z" fill="#b779d6"/><text x="180" y="342" text-anchor="middle" fill="#fff" font-family="Arial" font-weight="900" font-size="35">WORLD</text></svg>