<svg xmlns="http://www.w3.org/2000/svg" viewBox="0 0 360 400"><path d="M177 95v225M93 332h174M180 97L46 136M180 97l134 39" fill="none" stroke="#e5cb82" stroke-width="12" stroke-linecap="round"/><circle cx="180" cy="96" r="24" fill="#ffc971"/><path d="M47 141L13 232h102L78 142M284 141l-37 91h102l-34-90" fill="none" stroke="#8194ae" stroke-width="4"/><path d="M6 230q52 75 116 0z" fill="#52ddd6"/><path d="M240 230q51 75 115 0z" fill="#c989ed"/><g fill="#78f0e4"><circle cx="40" cy="190" r="15"/><path d="M16 224v-12q24-27 48 0v12z"/><circle cx="84" cy="183" r="15"/><path d="M61 224v-18q24-28 48 0v18z"/></g><g fill="#dcb4ff"><circle cx="272" cy="190" r="14"/><circle cx="312" cy="190" r="14"/><circle cx="292" cy="165" r="14"/><path d="M250 222q23-43 44 0M290 222q23-43 44 0M272 195q20-40 40 0"/></g><path d="M142 350l38-43 38 43" fill="#e5cb82"/><text x="180" y="47" text-anchor="middle" font-family="Arial" font-weight="bold" font-size="20" letter-spacing="4" fill="#d8e1f8">LESS IS MORE</text></svg>